<svg width="109" height="44" viewBox="0 0 109 44" fill="none" xmlns="http://www.w3.org/2000/svg">
<path d="M90.8499 23.4345C90.7613 28.3297 91.8174 30.9226 95.8482 30.9226C99.8723 30.9226 100.45 26.5058 100.45 23.1447C100.45 19.7814 99.6862 16.5164 95.4582 16.5164C92.8646 16.5164 90.9496 18.5341 90.8499 23.4345ZM82.6953 43.8909V10.7546H90.9496C90.9496 10.7546 90.9496 11.2344 90.9496 12.0988C90.9496 13.8917 91.6719 13.1523 92.2538 12.4536C92.3513 12.3368 94.1909 10.0825 98.334 10.0825C102.464 10.0825 108.89 12.9631 108.89 23.1447C108.89 31.0202 105.057 36.782 98.4359 36.782C94.7877 36.782 92.6785 35.344 92.1962 34.7636C91.7133 34.1913 91.0427 34.0915 91.0427 34.7636C91.0427 35.4371 91.0427 43.8909 91.0427 43.8909H82.6953Z" fill="black"/>
<path d="M18.8977 3.8147e-06H27.8204C27.8204 3.8147e-06 27.8204 19.3991 27.8204 23.4345C27.8204 27.4654 26.0915 35.9199 13.7178 35.9199C1.34261 35.9199 0 28.0399 0 23.6252V19.3037H8.63465C8.63465 19.3037 8.63465 20.9362 8.63465 23.5277C8.63465 26.1206 10.362 28.5205 13.6218 28.5205C16.8831 28.5205 18.8977 26.6965 18.8977 23.6252C18.8977 20.5518 18.8977 3.8147e-06 18.8977 3.8147e-06Z" fill="black"/>
<path d="M46.4786 19.8797C46.4786 17.476 45.1382 15.1715 42.0682 15.1715C39.0942 15.1715 38.0382 17.2823 38.0382 19.8797H46.4786ZM41.2078 9.79418C48.2148 9.79418 54.3518 12.4825 54.3518 24.8725H37.7568C37.7568 28.8103 39.3859 30.4435 42.2639 30.4435C45.1426 30.4435 46.1012 28.1368 46.1012 28.1368H54.258C54.258 31.6916 49.3647 36.4936 41.9759 36.3983C33.5362 36.3983 29.4102 30.1552 29.4102 23.7199C29.4102 17.2823 33.0532 9.79418 41.2078 9.79418Z" fill="black"/>
<path d="M73.0081 19.8797C73.0081 17.476 71.6663 15.1715 68.5963 15.1715C65.6238 15.1715 64.5655 17.2823 64.5655 19.8797H73.0081ZM67.7374 9.79418C74.7436 9.79418 80.8792 12.4825 80.8792 24.8725H64.2849C64.2849 28.8103 65.9155 30.4435 68.7957 30.4435C71.6714 30.4435 72.6315 28.1368 72.6315 28.1368H80.7883C80.7883 31.6916 75.8942 36.4936 68.5077 36.3983C60.0636 36.3983 55.9375 30.1552 55.9375 23.7199C55.9375 17.2823 59.585 9.79418 67.7374 9.79418Z" fill="black"/>
<path d="M103.427 39.9182C103.427 38.6058 104.494 37.5397 105.81 37.5397C107.12 37.5397 108.185 38.6058 108.185 39.9182C108.185 41.2283 107.12 42.3011 105.81 42.3011C104.494 42.3011 103.427 41.2283 103.427 39.9182ZM103.152 39.9182C103.152 41.3865 104.34 42.5784 105.81 42.5784C107.27 42.5784 108.464 41.3865 108.464 39.9182C108.464 38.4498 107.27 37.258 105.81 37.258C104.34 37.258 103.152 38.4498 103.152 39.9182Z" fill="black"/>
<path d="M106.876 41.2786L106.324 39.9744C106.499 39.9137 106.558 39.8708 106.651 39.771C106.772 39.6409 106.848 39.4354 106.848 39.2491C106.848 38.7788 106.487 38.4587 105.963 38.4587H104.855V41.2786H105.184V40.0572H105.985L106.51 41.2786H106.876ZM105.175 39.771V38.7655H105.957C106.283 38.7655 106.491 38.9518 106.491 39.2402C106.491 39.5677 106.27 39.771 105.911 39.771H105.175Z" fill="black"/>
</svg>
